<svg width="648" height="87" viewBox="0 0 648 87" fill="none" xmlns="http://www.w3.org/2000/svg">
<path d="M578.023 62.4489C578.023 62.4489 582.44 62.3502 585.013 63.3253C589.528 65.0358 591.13 67.7072 591.13 67.7072C587.926 61.7186 586.324 54.0356 595.061 53.6851" stroke="black" stroke-width="1.64103" stroke-linecap="round"/>
<path d="M606.775 61.3258C606.775 61.3258 610.088 61.2517 612.018 61.9831C615.404 63.266 616.605 65.2695 616.605 65.2695C614.202 60.7781 613.001 55.0158 619.554 54.7529" stroke="black" stroke-width="1.23077" stroke-linecap="round"/>
<path d="M603.581 83.1806C603.581 83.1806 606.065 83.1251 607.513 83.6736C610.052 84.6358 610.953 86.1384 610.953 86.1384C609.151 82.7698 608.25 78.4482 613.165 78.251" stroke="black" stroke-width="0.923077" stroke-linecap="round"/>
<path d="M623.814 39.3891C623.814 39.3891 626.298 39.3336 627.746 39.8821C630.285 40.8443 631.186 42.3469 631.186 42.3469C629.384 38.9783 628.483 34.6567 633.398 34.4595" stroke="black" stroke-width="0.923077" stroke-linecap="round"/>
<path d="M637.657 66.0913C637.657 66.0913 640.141 66.0358 641.589 66.5843C644.128 67.5465 645.029 69.0491 645.029 69.0491C643.227 65.6805 642.326 61.3588 647.241 61.1616" stroke="black" stroke-width="0.923077" stroke-linecap="round"/>
<path d="M0.851807 29.3381C0.851807 29.3381 5.26835 29.2393 7.84187 30.2145C12.3561 31.925 13.9582 34.5964 13.9582 34.5964C10.7544 28.6077 9.1525 20.9248 17.8901 20.5742" stroke="black" stroke-width="1.64103" stroke-linecap="round"/>
<path d="M30.6688 35.1167C30.6688 35.1167 33.1531 35.0611 34.6007 35.6096C37.14 36.5718 38.0412 38.0745 38.0412 38.0745C36.239 34.7059 35.338 30.3842 40.2529 30.187" stroke="black" stroke-width="0.923077" stroke-linecap="round"/>
<path d="M46.6422 6.27829C46.6422 6.27829 49.1265 6.22274 50.5741 6.77126C53.1133 7.73341 54.0145 9.23608 54.0145 9.23608C52.2124 5.86748 51.3113 1.54582 56.2262 1.34863" stroke="black" stroke-width="0.923077" stroke-linecap="round"/>
<path d="M92.4325 23.3676C92.4325 23.3676 94.9168 23.3121 96.3644 23.8606C98.9037 24.8228 99.8048 26.3254 99.8048 26.3254C98.0027 22.9568 97.1016 18.6352 102.017 18.438" stroke="black" stroke-width="0.923077" stroke-linecap="round"/>
<path d="M316.06 63.5168C316.06 63.5168 320.476 63.418 323.05 64.3932C327.564 66.1037 329.166 68.7751 329.166 68.7751C325.962 62.7865 324.361 55.1035 333.098 54.7529" stroke="black" stroke-width="1.64103" stroke-linecap="round"/>
<path d="M345.877 69.2954C345.877 69.2954 348.361 69.2398 349.809 69.7883C352.348 70.7505 353.249 72.2532 353.249 72.2532C351.447 68.8846 350.546 64.5629 355.461 64.3657" stroke="black" stroke-width="0.923077" stroke-linecap="round"/>
<path d="M361.85 40.457C361.85 40.457 364.335 40.4015 365.782 40.95C368.321 41.9121 369.223 43.4148 369.223 43.4148C367.42 40.0462 366.519 35.7245 371.434 35.5273" stroke="black" stroke-width="0.923077" stroke-linecap="round"/>
<path d="M407.641 57.5464C407.641 57.5464 410.125 57.4908 411.572 58.0394C414.112 59.0015 415.013 60.5042 415.013 60.5042C413.211 57.1356 412.31 52.8139 417.225 52.6167" stroke="black" stroke-width="0.923077" stroke-linecap="round"/>
</svg>
