<svg width="864" height="636" viewBox="0 0 864 636" fill="none" xmlns="http://www.w3.org/2000/svg">
<mask id="mask0" mask-type="alpha" maskUnits="userSpaceOnUse" x="572" y="194" width="148" height="113">
<path d="M645.673 194.41L719.017 306.193H572.329L645.673 194.41Z" fill="#C4C4C4"/>
</mask>
<g mask="url(#mask0)">
<path d="M645.673 194.41L719.017 306.193H572.329L645.673 194.41Z" fill="#D6E6FF"/>
<path d="M663.109 230.012C671.538 237.72 677.548 232.975 677.903 226.714L654.391 190.038L621.621 178.171C610.507 190.368 589.346 218.03 593.613 231.105C597.881 244.18 607.706 228.828 610.285 220.859C613.797 221.754 605.399 226.442 612.467 231.443C621.493 237.828 632.129 230.793 635.087 223.61C635.709 228.763 636.831 232.95 640.957 234.098C650.966 236.882 655.986 230.292 652.43 220.006C653.541 222.079 654.68 222.304 663.109 230.012Z" fill="#EEF4FF"/>
</g>
<mask id="mask1" mask-type="alpha" maskUnits="userSpaceOnUse" x="456" y="163" width="173" height="144">
<path d="M542.457 163.806L628.07 306.915H456.845L542.457 163.806Z" fill="#C4C4C4"/>
</mask>
<g mask="url(#mask1)">
<path d="M542.457 163.806L628.07 306.915H456.845L542.457 163.806Z" fill="#CADFFF"/>
<path d="M542.457 163.806L628.07 306.915H456.845L542.457 163.806Z" fill="url(#paint0_linear)"/>
<path d="M503.537 214.241C493.698 224.11 490.408 210.546 489.993 202.53L555.69 140.383C568.663 155.998 593.365 191.412 588.383 208.151C583.401 224.89 571.933 205.237 568.923 195.035C564.823 196.18 566.121 210.181 557.87 216.583C547.335 224.757 543.184 209.401 542.302 198.47C540.797 203.363 534.736 215.178 522.53 223.298C510.325 231.417 515.577 207.11 519.728 193.942C518.431 196.596 513.376 204.373 503.537 214.241Z" fill="#EEF4FF"/>
</g>
<mask id="mask2" mask-type="alpha" maskUnits="userSpaceOnUse" x="538" y="209" width="303" height="231">
<path d="M689.413 209.212L840.61 439.651H538.215L689.413 209.212Z" fill="#C4C4C4"/>
</mask>
<g mask="url(#mask2)">
<path d="M689.413 209.212L840.61 439.651H538.215L689.413 209.212Z" fill="#D6E6FF"/>
<path d="M725.357 282.604C742.733 298.495 755.122 288.712 755.855 275.805L707.385 200.198L639.83 175.734C616.918 200.878 573.294 257.903 582.092 284.857C590.891 311.81 611.144 280.163 616.46 263.736C623.7 265.58 606.388 275.245 620.959 285.554C639.565 298.717 661.491 284.213 667.589 269.406C668.873 280.029 671.184 288.66 679.69 291.026C700.324 296.767 710.673 283.18 703.341 261.976C705.632 266.251 707.981 266.713 725.357 282.604Z" fill="#EEF4FF"/>
</g>
<mask id="mask3" mask-type="alpha" maskUnits="userSpaceOnUse" x="300" y="146" width="354" height="296">
<path d="M476.634 146.12L653.124 441.138H300.145L476.634 146.12Z" fill="#C4C4C4"/>
</mask>
<g mask="url(#mask3)">
<path d="M476.634 146.12L653.124 441.138H300.145L476.634 146.12Z" fill="#CADFFF"/>
<path d="M476.634 146.12L653.124 441.138H300.145L476.634 146.12Z" fill="url(#paint1_linear)"/>
<path d="M396.401 250.092C376.118 270.436 369.336 242.474 368.48 225.95L503.914 97.8352C530.658 130.025 581.579 203.031 571.309 237.538C561.04 272.046 537.398 231.53 531.193 210.499C522.742 212.86 525.416 241.723 508.407 254.921C486.689 271.772 478.132 240.114 476.313 217.581C473.211 227.667 460.716 252.024 435.555 268.762C410.394 285.501 421.22 235.392 429.778 208.246C427.104 213.718 416.684 229.748 396.401 250.092Z" fill="#EEF4FF"/>
</g>
<mask id="mask4" mask-type="alpha" maskUnits="userSpaceOnUse" x="383" y="158" width="438" height="334">
<path d="M602.294 158.22L820.901 491.399H383.688L602.294 158.22Z" fill="#C4C4C4"/>
</mask>
<g mask="url(#mask4)">
<path d="M602.294 158.22L820.901 491.399H383.688L602.294 158.22Z" fill="#D6E6FF"/>
<path d="M654.265 264.334C679.388 287.31 697.299 273.166 698.359 254.504L628.28 145.189L530.606 109.818C497.479 146.171 434.406 228.621 447.127 267.592C459.847 306.562 489.131 260.806 496.817 237.055C507.285 239.721 482.254 253.695 503.322 268.6C530.223 287.631 561.925 266.661 570.741 245.253C572.597 260.611 575.939 273.09 588.237 276.512C618.071 284.812 633.034 265.168 622.433 234.51C625.746 240.69 629.141 241.359 654.265 264.334Z" fill="#EEF4FF"/>
</g>
<mask id="mask5" mask-type="alpha" maskUnits="userSpaceOnUse" x="39" y="67" width="511" height="427">
<path d="M294.651 67L549.826 493.549H39.4757L294.651 67Z" fill="#C4C4C4"/>
</mask>
<g mask="url(#mask5)">
<path d="M294.651 67L549.826 493.549H39.4757L294.651 67Z" fill="#CADFFF"/>
<path d="M294.651 67L549.826 493.549H39.4757L294.651 67Z" fill="url(#paint2_linear)"/>
<path d="M178.647 217.328C149.321 246.742 139.514 206.313 138.277 182.422L334.092 -2.81177C372.76 43.7294 446.385 149.285 431.536 199.177C416.687 249.069 382.505 190.489 373.534 160.082C361.315 163.495 365.182 205.227 340.589 224.309C309.188 248.673 296.816 202.9 294.187 170.321C289.701 184.904 271.636 220.12 235.257 244.322C198.878 268.523 214.531 196.074 226.904 156.824C223.038 164.736 207.972 187.914 178.647 217.328Z" fill="#EEF4FF"/>
</g>
<mask id="mask6" mask-type="alpha" maskUnits="userSpaceOnUse" x="80" y="345" width="62" height="146">
<path d="M110.803 345.316L80.298 490.125H141.309L110.803 345.316Z" fill="#297B81"/>
</mask>
<g mask="url(#mask6)">
<path d="M110.803 345.316L80.298 490.125H141.309L110.803 345.316Z" fill="#297B81"/>
<path d="M90.6106 499.464L113.047 337.44L53.1425 498.339L90.6106 499.464Z" fill="black" fill-opacity="0.12"/>
<path d="M131.444 496.089L109.008 334.064L168.913 494.963L131.444 496.089Z" fill="#B5CEFF" fill-opacity="0.15"/>
</g>
<path d="M112.149 495.188L110.803 357.468M111.701 472.685L100.931 462.333M111.701 456.257L120.226 447.256M111.252 438.255L106.316 431.504M111.027 423.402L115.739 417.101M111.027 413.276L107.438 408.55M111.252 402.024L115.29 397.524M111.027 389.647L109.457 387.172" stroke="black" stroke-width="0.842752" stroke-linecap="round"/>
<mask id="mask7" mask-type="alpha" maskUnits="userSpaceOnUse" x="44" y="385" width="62" height="107">
<path d="M75.3545 385.372L105.86 491.025H44.8492L75.3545 385.372Z" fill="#297B81"/>
</mask>
<g mask="url(#mask7)">
<path d="M75.3545 385.372L105.86 491.025H44.8492L75.3545 385.372Z" fill="#FFBA33"/>
<path d="M75.3545 385.372L105.86 491.025H44.8492L75.3545 385.372Z" fill="url(#paint3_linear)"/>
<path d="M95.547 497.839L73.111 379.625L133.015 497.018L95.547 497.839Z" fill="black" fill-opacity="0.12"/>
<path d="M54.7133 495.376L77.1493 377.163L17.2452 494.555L54.7133 495.376Z" fill="#B5CEFF" fill-opacity="0.15"/>
</g>
<path d="M74.0084 494.719L75.3545 394.238M74.4571 478.301L85.2264 470.748M74.4571 466.315L65.9314 459.748M74.9058 453.18L79.8417 448.255M75.1302 442.344L70.4186 437.747M75.1302 434.956L78.7199 431.508M74.9058 426.747L70.8673 423.463M75.1302 417.716L76.7007 415.91" stroke="black" stroke-width="0.842752" stroke-linecap="round"/>
<mask id="mask8" mask-type="alpha" maskUnits="userSpaceOnUse" x="23" y="353" width="49" height="137">
<path d="M47.3094 353.867L23.216 489.563H71.4027L47.3094 353.867Z" fill="#297B81"/>
</mask>
<g mask="url(#mask8)">
<path d="M47.3094 353.867L23.216 489.563H71.4027L47.3094 353.867Z" fill="#297B81"/>
<path d="M31.3615 498.314L49.0817 346.487L1.76887 497.26L31.3615 498.314Z" fill="black" fill-opacity="0.12"/>
<path d="M63.612 495.151L45.8918 343.324L93.2046 494.096L63.612 495.151Z" fill="#B5CEFF" fill-opacity="0.15"/>
</g>
<path d="M48.3727 494.307L47.3095 365.254M48.0183 473.22L39.5126 463.52M48.0183 457.827L54.752 449.392M47.6639 440.957L43.7655 434.631M47.4867 427.039L51.2079 421.135M47.4867 417.55L44.6515 413.122M47.6639 407.007L50.8535 402.789M47.4867 395.409L46.2463 393.089" stroke="black" stroke-width="0.842752" stroke-linecap="round"/>
<mask id="mask9" mask-type="alpha" maskUnits="userSpaceOnUse" x="101" y="345" width="62" height="146">
<path d="M132.342 345.316L162.847 490.125H101.836L132.342 345.316Z" fill="#297B81"/>
</mask>
<g mask="url(#mask9)">
<path d="M132.342 345.316L162.847 490.125H101.836L132.342 345.316Z" fill="#297B81"/>
<path d="M152.534 499.464L130.098 337.44L190.002 498.339L152.534 499.464Z" fill="black" fill-opacity="0.12"/>
<path d="M111.7 496.089L134.136 334.064L74.2324 494.963L111.7 496.089Z" fill="#B5CEFF" fill-opacity="0.15"/>
</g>
<path d="M130.995 495.188L132.341 357.468M131.444 472.685L142.213 462.333M131.444 456.257L122.918 447.256M131.893 438.255L136.829 431.504M132.117 423.402L127.406 417.101M132.117 413.276L135.707 408.55M131.893 402.024L127.854 397.524M132.117 389.647L133.688 387.172" stroke="black" stroke-width="0.842752" stroke-linecap="round"/>
<mask id="mask10" mask-type="alpha" maskUnits="userSpaceOnUse" x="137" y="385" width="62" height="107">
<path d="M167.79 385.372L198.296 491.025H137.285L167.79 385.372Z" fill="#297B81"/>
</mask>
<g mask="url(#mask10)">
<path d="M167.79 385.372L198.296 491.025H137.285L167.79 385.372Z" fill="#FFBA33"/>
<path d="M167.79 385.372L198.296 491.025H137.285L167.79 385.372Z" fill="url(#paint4_linear)"/>
<path d="M187.983 497.839L165.547 379.625L225.451 497.018L187.983 497.839Z" fill="black" fill-opacity="0.12"/>
<path d="M147.149 495.376L169.585 377.163L109.681 494.555L147.149 495.376Z" fill="#B5CEFF" fill-opacity="0.15"/>
</g>
<path d="M166.444 494.719L167.791 394.238M166.893 478.301L177.662 470.748M166.893 466.315L158.367 459.748M167.342 453.18L172.278 448.255M167.566 442.344L162.855 437.747M167.566 434.956L171.156 431.508M167.342 426.747L163.303 423.463M167.566 417.716L169.137 415.91" stroke="black" stroke-width="0.842752" stroke-linecap="round"/>
<mask id="mask11" mask-type="alpha" maskUnits="userSpaceOnUse" x="171" y="353" width="49" height="137">
<path d="M195.836 353.867L219.929 489.563H171.742L195.836 353.867Z" fill="#297B81"/>
</mask>
<g mask="url(#mask11)">
<path d="M195.836 353.867L219.929 489.563H171.742L195.836 353.867Z" fill="#297B81"/>
<path d="M211.784 498.314L194.063 346.487L241.376 497.26L211.784 498.314Z" fill="black" fill-opacity="0.12"/>
<path d="M179.533 495.151L197.253 343.324L149.94 494.097L179.533 495.151Z" fill="#B5CEFF" fill-opacity="0.15"/>
</g>
<path d="M194.772 494.307L195.836 365.254M195.127 473.22L203.632 463.52M195.127 457.827L188.393 449.392M195.481 440.957L199.38 434.631M195.658 427.04L191.937 421.135M195.658 417.55L198.494 413.122M195.481 407.007L192.291 402.789M195.658 395.409L196.899 393.089" stroke="black" stroke-width="0.842752" stroke-linecap="round"/>
<mask id="mask12" mask-type="alpha" maskUnits="userSpaceOnUse" x="264" y="333" width="62" height="146">
<path d="M294.554 333.215L264.049 478.024H325.059L294.554 333.215Z" fill="#297B81"/>
</mask>
<g mask="url(#mask12)">
<path d="M294.554 333.215L264.049 478.024H325.059L294.554 333.215Z" fill="#297B81"/>
<path d="M274.362 487.363L296.798 325.339L236.894 486.238L274.362 487.363Z" fill="black" fill-opacity="0.12"/>
<path d="M315.195 483.988L292.759 321.963L352.663 482.863L315.195 483.988Z" fill="#B5CEFF" fill-opacity="0.15"/>
</g>
<path d="M295.9 483.088L294.554 345.367M295.451 460.584L284.682 450.233M295.451 444.157L303.977 435.155M295.003 426.154L290.067 419.403M294.778 411.302L299.49 405.001M294.778 401.175L291.189 396.45M295.003 389.924L299.041 385.423M294.778 377.547L293.208 375.071" stroke="black" stroke-width="0.842752" stroke-linecap="round"/>
<mask id="mask13" mask-type="alpha" maskUnits="userSpaceOnUse" x="228" y="373" width="62" height="106">
<path d="M259.105 373.271L289.611 478.924H228.6L259.105 373.271Z" fill="#297B81"/>
</mask>
<g mask="url(#mask13)">
<path d="M259.105 373.271L289.611 478.924H228.6L259.105 373.271Z" fill="#FFBA33"/>
<path d="M259.105 373.271L289.611 478.924H228.6L259.105 373.271Z" fill="url(#paint5_linear)"/>
<path d="M279.298 485.739L256.862 367.525L316.766 484.918L279.298 485.739Z" fill="black" fill-opacity="0.12"/>
<path d="M238.464 483.275L260.9 365.062L200.996 482.455L238.464 483.275Z" fill="#B5CEFF" fill-opacity="0.15"/>
</g>
<path d="M257.759 482.619L259.106 382.137M258.208 466.2L268.977 458.648M258.208 454.215L249.682 447.647M258.657 441.08L263.593 436.154M258.881 430.244L254.17 425.646M258.881 422.855L262.471 419.407M258.657 414.646L254.618 411.362M258.881 405.616L260.452 403.81" stroke="black" stroke-width="0.842752" stroke-linecap="round"/>
<mask id="mask14" mask-type="alpha" maskUnits="userSpaceOnUse" x="206" y="341" width="50" height="137">
<path d="M231.06 341.766L206.967 477.462H255.154L231.06 341.766Z" fill="#297B81"/>
</mask>
<g mask="url(#mask14)">
<path d="M231.06 341.766L206.967 477.462H255.154L231.06 341.766Z" fill="#297B81"/>
<path d="M215.112 486.213L232.832 334.385L185.519 485.158L215.112 486.213Z" fill="black" fill-opacity="0.12"/>
<path d="M247.363 483.05L229.643 331.223L276.955 481.995L247.363 483.05Z" fill="#B5CEFF" fill-opacity="0.15"/>
</g>
<path d="M232.123 482.206L231.06 353.153M231.769 461.119L223.263 451.419M231.769 445.726L238.503 437.291M231.415 428.856L227.516 422.53M231.237 414.939L234.959 409.034M231.237 405.449L228.402 401.021M231.415 394.906L234.604 390.688M231.237 383.308L229.997 380.988" stroke="black" stroke-width="0.842752" stroke-linecap="round"/>
<mask id="mask15" mask-type="alpha" maskUnits="userSpaceOnUse" x="285" y="333" width="62" height="146">
<path d="M316.093 333.215L346.598 478.024H285.587L316.093 333.215Z" fill="#297B81"/>
</mask>
<g mask="url(#mask15)">
<path d="M316.093 333.215L346.598 478.024H285.587L316.093 333.215Z" fill="#297B81"/>
<path d="M336.285 487.364L313.849 325.339L373.753 486.238L336.285 487.364Z" fill="black" fill-opacity="0.12"/>
<path d="M295.452 483.988L317.888 321.963L257.984 482.863L295.452 483.988Z" fill="#B5CEFF" fill-opacity="0.15"/>
</g>
<path d="M314.747 483.088L316.093 345.367M315.196 460.584L325.965 450.233M315.196 444.157L306.67 435.155M315.644 426.154L320.58 419.403M315.869 411.302L311.157 405.001M315.869 401.175L319.458 396.45M315.644 389.924L311.606 385.423M315.869 377.547L317.439 375.071" stroke="black" stroke-width="0.842752" stroke-linecap="round"/>
<mask id="mask16" mask-type="alpha" maskUnits="userSpaceOnUse" x="321" y="373" width="62" height="106">
<path d="M351.542 373.271L382.047 478.924H321.036L351.542 373.271Z" fill="#297B81"/>
</mask>
<g mask="url(#mask16)">
<path d="M351.542 373.271L382.047 478.924H321.036L351.542 373.271Z" fill="#FFBA33"/>
<path d="M351.542 373.271L382.047 478.924H321.036L351.542 373.271Z" fill="url(#paint6_linear)"/>
<path d="M371.734 485.739L349.298 367.525L409.202 484.918L371.734 485.739Z" fill="black" fill-opacity="0.12"/>
<path d="M330.901 483.275L353.337 365.062L293.433 482.455L330.901 483.275Z" fill="#B5CEFF" fill-opacity="0.15"/>
</g>
<path d="M350.195 482.619L351.542 382.137M350.644 466.2L361.413 458.648M350.644 454.215L342.119 447.647M351.093 441.08L356.029 436.154M351.317 430.244L346.606 425.646M351.317 422.855L354.907 419.407M351.093 414.646L347.054 411.362M351.317 405.616L352.888 403.81" stroke="black" stroke-width="0.842752" stroke-linecap="round"/>
<mask id="mask17" mask-type="alpha" maskUnits="userSpaceOnUse" x="355" y="341" width="49" height="137">
<path d="M379.587 341.766L403.68 477.462H355.493L379.587 341.766Z" fill="#297B81"/>
</mask>
<g mask="url(#mask17)">
<path d="M379.587 341.766L403.68 477.462H355.493L379.587 341.766Z" fill="#297B81"/>
<path d="M395.535 486.213L377.814 334.386L425.127 485.158L395.535 486.213Z" fill="black" fill-opacity="0.12"/>
<path d="M363.284 483.05L381.004 331.223L333.691 481.995L363.284 483.05Z" fill="#B5CEFF" fill-opacity="0.15"/>
</g>
<path d="M378.523 482.206L379.586 353.153M378.878 461.119L387.383 451.419M378.878 445.726L372.144 437.291M379.232 428.856L383.13 422.53M379.409 414.938L375.688 409.034M379.409 405.449L382.244 401.021M379.232 394.906L376.042 390.688M379.409 383.308L380.65 380.988" stroke="black" stroke-width="0.842752" stroke-linecap="round"/>
<mask id="mask18" mask-type="alpha" maskUnits="userSpaceOnUse" x="453" y="342" width="62" height="146">
<path d="M483.873 342.523L453.368 487.333H514.378L483.873 342.523Z" fill="#297B81"/>
</mask>
<g mask="url(#mask18)">
<path d="M483.873 342.523L453.368 487.333H514.378L483.873 342.523Z" fill="#297B81"/>
<path d="M463.68 496.671L486.116 334.647L426.212 495.546L463.68 496.671Z" fill="black" fill-opacity="0.12"/>
<path d="M504.514 493.296L482.078 331.271L541.982 492.171L504.514 493.296Z" fill="#B5CEFF" fill-opacity="0.15"/>
</g>
<path d="M485.219 492.396L483.873 354.675M484.77 469.892L474.001 459.541M484.77 453.465L493.296 444.464M484.322 435.462L479.386 428.711M484.097 420.61L488.809 414.309M484.097 410.483L480.508 405.758M484.322 399.232L488.36 394.731M484.097 386.855L482.527 384.38" stroke="black" stroke-width="0.842752" stroke-linecap="round"/>
<mask id="mask19" mask-type="alpha" maskUnits="userSpaceOnUse" x="417" y="382" width="62" height="107">
<path d="M448.424 382.579L478.93 488.233H417.919L448.424 382.579Z" fill="#297B81"/>
</mask>
<g mask="url(#mask19)">
<path d="M448.424 382.579L478.93 488.233H417.919L448.424 382.579Z" fill="#FFBA33"/>
<path d="M448.424 382.579L478.93 488.233H417.919L448.424 382.579Z" fill="url(#paint7_linear)"/>
<path d="M468.617 495.046L446.181 376.833L506.085 494.226L468.617 495.046Z" fill="black" fill-opacity="0.12"/>
<path d="M427.783 492.584L450.219 374.37L390.315 491.763L427.783 492.584Z" fill="#B5CEFF" fill-opacity="0.15"/>
</g>
<path d="M447.078 491.927L448.424 391.446M447.527 475.509L458.296 467.956M447.527 463.523L439.001 456.956M447.976 450.388L452.912 445.463M448.2 439.552L443.488 434.955M448.2 432.164L451.79 428.716M447.976 423.954L443.937 420.671M448.2 414.924L449.77 413.118" stroke="black" stroke-width="0.842752" stroke-linecap="round"/>
<mask id="mask20" mask-type="alpha" maskUnits="userSpaceOnUse" x="396" y="351" width="49" height="136">
<path d="M420.379 351.074L396.286 486.77H444.472L420.379 351.074Z" fill="#297B81"/>
</mask>
<g mask="url(#mask20)">
<path d="M420.379 351.074L396.286 486.77H444.472L420.379 351.074Z" fill="#297B81"/>
<path d="M404.431 495.521L422.151 343.694L374.838 494.467L404.431 495.521Z" fill="black" fill-opacity="0.12"/>
<path d="M436.682 492.358L418.961 340.531L466.274 491.304L436.682 492.358Z" fill="#B5CEFF" fill-opacity="0.15"/>
</g>
<path d="M421.442 491.514L420.379 362.461M421.088 470.427L412.582 460.727M421.088 455.034L427.822 446.599M420.733 438.164L416.835 431.838M420.556 424.246L424.277 418.342M420.556 414.757L417.721 410.329M420.733 404.214L423.923 399.996M420.556 392.616L419.316 390.296" stroke="black" stroke-width="0.842752" stroke-linecap="round"/>
<mask id="mask21" mask-type="alpha" maskUnits="userSpaceOnUse" x="474" y="342" width="62" height="146">
<path d="M505.412 342.523L535.917 487.333H474.906L505.412 342.523Z" fill="#297B81"/>
</mask>
<g mask="url(#mask21)">
<path d="M505.412 342.523L535.917 487.333H474.906L505.412 342.523Z" fill="#297B81"/>
<path d="M525.604 496.671L503.168 334.647L563.072 495.546L525.604 496.671Z" fill="black" fill-opacity="0.12"/>
<path d="M484.77 493.296L507.206 331.271L447.302 492.171L484.77 493.296Z" fill="#B5CEFF" fill-opacity="0.15"/>
</g>
<path d="M504.065 492.396L505.412 354.675M504.514 469.892L515.283 459.541M504.514 453.465L495.989 444.464M504.963 435.462L509.899 428.711M505.187 420.61L500.476 414.309M505.187 410.483L508.777 405.758M504.963 399.232L500.924 394.731M505.187 386.855L506.758 384.38" stroke="black" stroke-width="0.842752" stroke-linecap="round"/>
<mask id="mask22" mask-type="alpha" maskUnits="userSpaceOnUse" x="510" y="382" width="62" height="107">
<path d="M540.86 382.579L571.366 488.233H510.355L540.86 382.579Z" fill="#297B81"/>
</mask>
<g mask="url(#mask22)">
<path d="M540.86 382.579L571.366 488.233H510.355L540.86 382.579Z" fill="#FFBA33"/>
<path d="M540.86 382.579L571.366 488.233H510.355L540.86 382.579Z" fill="url(#paint8_linear)"/>
<path d="M561.053 495.046L538.617 376.833L598.521 494.225L561.053 495.046Z" fill="black" fill-opacity="0.12"/>
<path d="M520.219 492.584L542.655 374.37L482.751 491.763L520.219 492.584Z" fill="#B5CEFF" fill-opacity="0.15"/>
</g>
<path d="M539.514 491.927L540.86 391.445M539.963 475.508L550.732 467.956M539.963 463.523L531.437 456.955M540.412 450.388L545.348 445.462M540.636 439.552L535.925 434.954M540.636 432.163L544.226 428.715M540.412 423.954L536.373 420.67M540.636 414.924L542.207 413.118" stroke="black" stroke-width="0.842752" stroke-linecap="round"/>
<mask id="mask23" mask-type="alpha" maskUnits="userSpaceOnUse" x="544" y="351" width="49" height="136">
<path d="M568.905 351.074L592.999 486.77H544.812L568.905 351.074Z" fill="#297B81"/>
</mask>
<g mask="url(#mask23)">
<path d="M568.905 351.074L592.999 486.77H544.812L568.905 351.074Z" fill="#297B81"/>
<path d="M584.853 495.521L567.133 343.694L614.446 494.467L584.853 495.521Z" fill="black" fill-opacity="0.12"/>
<path d="M552.603 492.358L570.323 340.531L523.01 491.303L552.603 492.358Z" fill="#B5CEFF" fill-opacity="0.15"/>
</g>
<path d="M567.842 491.514L568.905 362.461M568.197 470.427L576.702 460.727M568.197 455.034L561.463 446.599M568.551 438.164L572.449 431.838M568.728 424.246L565.007 418.342M568.728 414.757L571.563 410.329M568.551 404.214L565.361 399.996M568.728 392.616L569.969 390.296" stroke="black" stroke-width="0.842752" stroke-linecap="round"/>
<mask id="mask24" mask-type="alpha" maskUnits="userSpaceOnUse" x="622" y="342" width="62" height="146">
<path d="M652.775 342.523L622.27 487.333H683.281L652.775 342.523Z" fill="#297B81"/>
</mask>
<g mask="url(#mask24)">
<path d="M652.775 342.523L622.27 487.333H683.281L652.775 342.523Z" fill="#297B81"/>
<path d="M632.583 496.672L655.019 334.647L595.115 495.547L632.583 496.672Z" fill="black" fill-opacity="0.12"/>
<path d="M673.416 493.296L650.98 331.271L710.884 492.171L673.416 493.296Z" fill="#B5CEFF" fill-opacity="0.15"/>
</g>
<path d="M654.122 492.396L652.775 354.675M653.673 469.893L642.904 459.541M653.673 453.465L662.198 444.464M653.224 435.462L648.288 428.711M653 420.61L657.711 414.309M653 410.484L649.41 405.758M653.224 399.232L657.263 394.731M653 386.855L651.429 384.38" stroke="black" stroke-width="0.842752" stroke-linecap="round"/>
<mask id="mask25" mask-type="alpha" maskUnits="userSpaceOnUse" x="586" y="382" width="62" height="107">
<path d="M617.327 382.579L647.832 488.233H586.821L617.327 382.579Z" fill="#297B81"/>
</mask>
<g mask="url(#mask25)">
<path d="M617.327 382.579L647.832 488.233H586.821L617.327 382.579Z" fill="#FFBA33"/>
<path d="M617.327 382.579L647.832 488.233H586.821L617.327 382.579Z" fill="url(#paint9_linear)"/>
<path d="M637.519 495.046L615.083 376.833L674.987 494.226L637.519 495.046Z" fill="black" fill-opacity="0.12"/>
<path d="M596.685 492.584L619.121 374.37L559.217 491.763L596.685 492.584Z" fill="#B5CEFF" fill-opacity="0.15"/>
</g>
<path d="M615.981 491.927L617.327 391.446M616.429 475.509L627.199 467.956M616.429 463.523L607.904 456.956M616.878 450.388L621.814 445.463M617.102 439.552L612.391 434.955M617.102 432.164L620.692 428.716M616.878 423.954L612.84 420.671M617.102 414.924L618.673 413.118" stroke="black" stroke-width="0.842752" stroke-linecap="round"/>
<mask id="mask26" mask-type="alpha" maskUnits="userSpaceOnUse" x="565" y="351" width="49" height="136">
<path d="M589.282 351.074L565.188 486.77H613.375L589.282 351.074Z" fill="#297B81"/>
</mask>
<g mask="url(#mask26)">
<path d="M589.282 351.074L565.188 486.77H613.375L589.282 351.074Z" fill="#297B81"/>
<path d="M573.334 495.521L591.054 343.694L543.741 494.467L573.334 495.521Z" fill="black" fill-opacity="0.12"/>
<path d="M605.584 492.358L587.864 340.531L635.177 491.304L605.584 492.358Z" fill="#B5CEFF" fill-opacity="0.15"/>
</g>
<path d="M590.345 491.514L589.282 362.461M589.991 470.427L581.485 460.727M589.991 455.034L596.724 446.599M589.636 438.164L585.738 431.838M589.459 424.247L593.18 418.342M589.459 414.757L586.624 410.329M589.636 404.214L592.826 399.996M589.459 392.616L588.219 390.296" stroke="black" stroke-width="0.842752" stroke-linecap="round"/>
<mask id="mask27" mask-type="alpha" maskUnits="userSpaceOnUse" x="643" y="342" width="62" height="146">
<path d="M674.314 342.523L704.819 487.333H643.809L674.314 342.523Z" fill="#297B81"/>
</mask>
<g mask="url(#mask27)">
<path d="M674.314 342.523L704.819 487.333H643.809L674.314 342.523Z" fill="#297B81"/>
<path d="M694.506 496.672L672.07 334.647L731.975 495.546L694.506 496.672Z" fill="black" fill-opacity="0.12"/>
<path d="M653.673 493.296L676.109 331.271L616.205 492.171L653.673 493.296Z" fill="#B5CEFF" fill-opacity="0.15"/>
</g>
<path d="M672.968 492.396L674.314 354.675M673.417 469.893L684.186 459.541M673.417 453.465L664.891 444.464M673.865 435.462L678.801 428.711M674.09 420.61L669.378 414.309M674.09 410.484L677.679 405.758M673.865 399.232L669.827 394.731M674.09 386.855L675.66 384.38" stroke="black" stroke-width="0.842752" stroke-linecap="round"/>
<mask id="mask28" mask-type="alpha" maskUnits="userSpaceOnUse" x="679" y="382" width="62" height="107">
<path d="M709.763 382.58L740.268 488.233H679.258L709.763 382.58Z" fill="#297B81"/>
</mask>
<g mask="url(#mask28)">
<path d="M709.763 382.58L740.268 488.233H679.258L709.763 382.58Z" fill="#FFBA33"/>
<path d="M709.763 382.58L740.268 488.233H679.258L709.763 382.58Z" fill="url(#paint10_linear)"/>
<path d="M729.955 495.047L707.519 376.833L767.423 494.226L729.955 495.047Z" fill="black" fill-opacity="0.12"/>
<path d="M689.122 492.584L711.558 374.37L651.654 491.763L689.122 492.584Z" fill="#B5CEFF" fill-opacity="0.15"/>
</g>
<path d="M708.417 491.927L709.763 391.446M708.865 475.509L719.635 467.956M708.865 463.523L700.34 456.956M709.314 450.388L714.25 445.463M709.538 439.552L704.827 434.955M709.538 432.164L713.128 428.716M709.314 423.955L705.276 420.671M709.538 414.924L711.109 413.118" stroke="black" stroke-width="0.842752" stroke-linecap="round"/>
<mask id="mask29" mask-type="alpha" maskUnits="userSpaceOnUse" x="713" y="351" width="49" height="136">
<path d="M737.808 351.074L761.901 486.77H713.715L737.808 351.074Z" fill="#297B81"/>
</mask>
<g mask="url(#mask29)">
<path d="M737.808 351.074L761.901 486.77H713.715L737.808 351.074Z" fill="#297B81"/>
<path d="M753.756 495.521L736.036 343.694L783.349 494.467L753.756 495.521Z" fill="black" fill-opacity="0.12"/>
<path d="M721.506 492.358L739.226 340.531L691.913 491.303L721.506 492.358Z" fill="#B5CEFF" fill-opacity="0.15"/>
</g>
<path d="M736.745 491.514L737.808 362.461M737.099 470.427L745.605 460.727M737.099 455.034L730.366 446.599M737.454 438.164L741.352 431.838M737.631 424.247L733.91 418.342M737.631 414.757L740.466 410.329M737.454 404.214L734.264 399.996M737.631 392.616L738.871 390.296" stroke="black" stroke-width="0.842752" stroke-linecap="round"/>
<path d="M547.54 322.236C547.54 322.236 551.389 322.15 553.632 323C557.566 324.491 558.962 326.819 558.962 326.819C556.17 321.6 554.774 314.904 562.389 314.599" stroke="black" stroke-width="1.43012" stroke-linecap="round"/>
<path d="M572.597 321.258C572.597 321.258 575.484 321.193 577.166 321.831C580.117 322.949 581.164 324.695 581.164 324.695C579.07 320.78 578.023 315.759 583.734 315.53" stroke="black" stroke-width="1.07259" stroke-linecap="round"/>
<path d="M569.813 340.304C569.813 340.304 571.978 340.256 573.24 340.734C575.452 341.572 576.238 342.882 576.238 342.882C574.667 339.946 573.882 336.18 578.165 336.008" stroke="black" stroke-width="0.804445" stroke-linecap="round"/>
<path d="M587.446 302.14C587.446 302.14 589.611 302.092 590.872 302.57C593.085 303.408 593.87 304.718 593.87 304.718C592.3 301.782 591.515 298.016 595.798 297.844" stroke="black" stroke-width="0.804445" stroke-linecap="round"/>
<path d="M599.51 325.411C599.51 325.411 601.675 325.362 602.937 325.84C605.149 326.679 605.935 327.988 605.935 327.988C604.364 325.053 603.579 321.286 607.862 321.115" stroke="black" stroke-width="0.804445" stroke-linecap="round"/>
<path d="M44.5459 293.381C44.5459 293.381 48.3948 293.295 50.6376 294.145C54.5717 295.635 55.9679 297.963 55.9679 297.963C53.1758 292.744 51.7798 286.049 59.3944 285.743" stroke="black" stroke-width="1.43012" stroke-linecap="round"/>
<path d="M70.5308 298.417C70.5308 298.417 72.6958 298.368 73.9574 298.846C76.1703 299.685 76.9556 300.994 76.9556 300.994C75.3851 298.059 74.5998 294.292 78.8831 294.121" stroke="black" stroke-width="0.804445" stroke-linecap="round"/>
<path d="M84.4512 273.285C84.4512 273.285 86.6162 273.236 87.8778 273.714C90.0907 274.553 90.876 275.862 90.876 275.862C89.3055 272.927 88.5202 269.16 92.8035 268.989" stroke="black" stroke-width="0.804445" stroke-linecap="round"/>
<path d="M124.357 288.178C124.357 288.178 126.522 288.13 127.784 288.608C129.997 289.446 130.782 290.756 130.782 290.756C129.211 287.82 128.426 284.054 132.709 283.882" stroke="black" stroke-width="0.804445" stroke-linecap="round"/>
<path d="M319.244 323.167C319.244 323.167 323.093 323.081 325.335 323.931C329.269 325.421 330.666 327.749 330.666 327.749C327.874 322.53 326.478 315.835 334.092 315.529" stroke="black" stroke-width="1.43012" stroke-linecap="round"/>
<path d="M345.229 328.203C345.229 328.203 347.394 328.154 348.655 328.632C350.868 329.471 351.654 330.781 351.654 330.781C350.083 327.845 349.298 324.079 353.581 323.907" stroke="black" stroke-width="0.804445" stroke-linecap="round"/>
<path d="M359.149 303.071C359.149 303.071 361.314 303.022 362.576 303.5C364.789 304.339 365.574 305.648 365.574 305.648C364.003 302.713 363.218 298.947 367.501 298.775" stroke="black" stroke-width="0.804445" stroke-linecap="round"/>
<path d="M399.055 317.964C399.055 317.964 401.22 317.915 402.482 318.393C404.694 319.232 405.48 320.542 405.48 320.542C403.909 317.606 403.124 313.84 407.407 313.668" stroke="black" stroke-width="0.804445" stroke-linecap="round"/>
<circle cx="674" cy="21" r="21" fill="#FFB0E0"/>
<defs>
<linearGradient id="paint0_linear" x1="597.257" y1="259.368" x2="558.793" y2="267.752" gradientUnits="userSpaceOnUse">
<stop stop-color="#99C1FF"/>
<stop offset="1" stop-color="#D7E6FF"/>
</linearGradient>
<linearGradient id="paint1_linear" x1="589.603" y1="343.12" x2="510.311" y2="360.404" gradientUnits="userSpaceOnUse">
<stop stop-color="#99C1FF"/>
<stop offset="1" stop-color="#D7E6FF"/>
</linearGradient>
<linearGradient id="paint2_linear" x1="457.985" y1="351.832" x2="343.341" y2="376.82" gradientUnits="userSpaceOnUse">
<stop stop-color="#99C1FF"/>
<stop offset="1" stop-color="#D7E6FF"/>
</linearGradient>
<linearGradient id="paint3_linear" x1="118.656" y1="433.754" x2="65.1848" y2="462.874" gradientUnits="userSpaceOnUse">
<stop stop-color="#FFA4A4"/>
<stop offset="1" stop-color="#F4BD52"/>
</linearGradient>
<linearGradient id="paint4_linear" x1="211.092" y1="433.754" x2="157.621" y2="462.874" gradientUnits="userSpaceOnUse">
<stop stop-color="#FFA4A4"/>
<stop offset="1" stop-color="#F4BD52"/>
</linearGradient>
<linearGradient id="paint5_linear" x1="302.407" y1="421.653" x2="248.936" y2="450.773" gradientUnits="userSpaceOnUse">
<stop stop-color="#FFA4A4"/>
<stop offset="1" stop-color="#F4BD52"/>
</linearGradient>
<linearGradient id="paint6_linear" x1="394.843" y1="421.653" x2="341.372" y2="450.773" gradientUnits="userSpaceOnUse">
<stop stop-color="#FFA4A4"/>
<stop offset="1" stop-color="#F4BD52"/>
</linearGradient>
<linearGradient id="paint7_linear" x1="491.726" y1="430.962" x2="438.255" y2="460.081" gradientUnits="userSpaceOnUse">
<stop stop-color="#FFA4A4"/>
<stop offset="1" stop-color="#F4BD52"/>
</linearGradient>
<linearGradient id="paint8_linear" x1="584.162" y1="430.961" x2="530.691" y2="460.081" gradientUnits="userSpaceOnUse">
<stop stop-color="#FFA4A4"/>
<stop offset="1" stop-color="#F4BD52"/>
</linearGradient>
<linearGradient id="paint9_linear" x1="660.628" y1="430.962" x2="607.157" y2="460.081" gradientUnits="userSpaceOnUse">
<stop stop-color="#FFA4A4"/>
<stop offset="1" stop-color="#F4BD52"/>
</linearGradient>
<linearGradient id="paint10_linear" x1="753.064" y1="430.962" x2="699.593" y2="460.081" gradientUnits="userSpaceOnUse">
<stop stop-color="#FFA4A4"/>
<stop offset="1" stop-color="#F4BD52"/>
</linearGradient>
</defs>
</svg>
