<svg width="864" height="569" viewBox="0 0 864 569" fill="none" xmlns="http://www.w3.org/2000/svg">
<mask id="mask0" mask-type="alpha" maskUnits="userSpaceOnUse" x="572" y="127" width="148" height="113">
<path d="M645.673 127.411L719.017 239.194H572.329L645.673 127.411Z" fill="#C4C4C4"/>
</mask>
<g mask="url(#mask0)">
<path d="M645.673 127.411L719.017 239.194H572.329L645.673 127.411Z" fill="#D6E6FF"/>
<path d="M663.109 163.012C671.538 170.721 677.548 165.975 677.903 159.714L654.391 123.039L621.621 111.171C610.507 123.368 589.346 151.03 593.613 164.105C597.881 177.18 607.706 161.828 610.285 153.86C613.797 154.754 605.399 159.443 612.467 164.444C621.493 170.828 632.129 163.793 635.087 156.61C635.709 161.763 636.831 165.95 640.957 167.098C650.966 169.883 655.986 163.292 652.43 153.006C653.541 155.08 654.68 155.304 663.109 163.012Z" fill="#EEF4FF"/>
</g>
<mask id="mask1" mask-type="alpha" maskUnits="userSpaceOnUse" x="456" y="96" width="173" height="144">
<path d="M542.457 96.8057L628.07 239.915H456.845L542.457 96.8057Z" fill="#C4C4C4"/>
</mask>
<g mask="url(#mask1)">
<path d="M542.457 96.8057L628.07 239.915H456.845L542.457 96.8057Z" fill="#CADFFF"/>
<path d="M542.457 96.8057L628.07 239.915H456.845L542.457 96.8057Z" fill="url(#paint0_linear)"/>
<path d="M503.537 147.241C493.698 157.11 490.408 143.546 489.993 135.53L555.69 73.3833C568.664 88.9981 593.365 124.412 588.383 141.151C583.401 157.89 571.933 138.237 568.923 128.035C564.823 129.18 566.121 143.181 557.87 149.583C547.335 157.757 543.184 142.401 542.302 131.47C540.797 136.363 534.736 148.178 522.53 156.298C510.325 164.417 515.577 140.11 519.728 126.942C518.431 129.596 513.376 137.373 503.537 147.241Z" fill="#EEF4FF"/>
</g>
<mask id="mask2" mask-type="alpha" maskUnits="userSpaceOnUse" x="538" y="142" width="303" height="231">
<path d="M689.413 142.211L840.61 372.651H538.215L689.413 142.211Z" fill="#C4C4C4"/>
</mask>
<g mask="url(#mask2)">
<path d="M689.413 142.211L840.61 372.651H538.215L689.413 142.211Z" fill="#CADFFF"/>
<path d="M689.413 142.211L840.61 372.651H538.215L689.413 142.211Z" fill="url(#paint1_linear)"/>
<path d="M725.357 215.604C742.733 231.494 755.122 221.712 755.855 208.805L707.385 133.198L639.83 108.734C616.918 133.877 573.294 190.903 582.092 217.856C590.89 244.81 611.144 213.163 616.46 196.736C623.7 198.58 606.388 208.245 620.959 218.554C639.565 231.716 661.491 217.213 667.589 202.406C668.873 213.028 671.184 221.66 679.69 224.026C700.324 229.767 710.673 216.18 703.341 194.976C705.632 199.25 707.981 199.713 725.357 215.604Z" fill="#EEF4FF"/>
</g>
<mask id="mask3" mask-type="alpha" maskUnits="userSpaceOnUse" x="300" y="79" width="354" height="296">
<path d="M476.634 79.1196L653.124 374.138H300.145L476.634 79.1196Z" fill="#C4C4C4"/>
</mask>
<g mask="url(#mask3)">
<path d="M476.634 79.1196L653.124 374.138H300.145L476.634 79.1196Z" fill="#CADFFF"/>
<path d="M476.634 79.1196L653.124 374.138H300.145L476.634 79.1196Z" fill="url(#paint2_linear)"/>
<path d="M396.401 183.092C376.118 203.436 369.336 175.474 368.48 158.95L503.914 30.835C530.658 63.0246 581.579 136.031 571.309 170.538C561.04 205.045 537.398 164.529 531.193 143.499C522.742 145.859 525.416 174.723 508.407 187.921C486.689 204.771 478.132 173.113 476.313 150.581C473.211 160.667 460.716 185.023 435.555 201.762C410.394 218.501 421.22 168.392 429.778 141.246C427.104 146.718 416.684 162.748 396.401 183.092Z" fill="#EEF4FF"/>
</g>
<mask id="mask4" mask-type="alpha" maskUnits="userSpaceOnUse" x="383" y="91" width="438" height="334">
<path d="M602.294 91.2202L820.901 424.399H383.688L602.294 91.2202Z" fill="#C4C4C4"/>
</mask>
<g mask="url(#mask4)">
<path d="M602.294 91.2202L820.901 424.399H383.688L602.294 91.2202Z" fill="#CADFFF"/>
<path d="M602.294 91.2202L820.901 424.399H383.688L602.294 91.2202Z" fill="url(#paint3_linear)"/>
<path d="M654.264 197.334C679.388 220.309 697.299 206.165 698.359 187.504L628.279 78.1886L530.606 42.8174C497.479 79.1708 434.406 161.62 447.127 200.591C459.847 239.562 489.131 193.805 496.817 170.054C507.285 172.72 482.254 186.695 503.322 201.6C530.223 220.63 561.925 199.661 570.741 178.252C572.597 193.611 575.939 206.09 588.237 209.512C618.071 217.812 633.034 198.167 622.433 167.509C625.746 173.69 629.141 174.359 654.264 197.334Z" fill="#EEF4FF"/>
</g>
<mask id="mask5" mask-type="alpha" maskUnits="userSpaceOnUse" x="39" y="0" width="511" height="427">
<path d="M294.651 0L549.826 426.549H39.4757L294.651 0Z" fill="#C4C4C4"/>
</mask>
<g mask="url(#mask5)">
<path d="M294.651 0L549.826 426.549H39.4757L294.651 0Z" fill="#CADFFF"/>
<path d="M294.651 0L549.826 426.549H39.4757L294.651 0Z" fill="url(#paint4_linear)"/>
<path d="M178.647 150.327C149.321 179.741 139.514 139.313 138.277 115.422L334.092 -69.812C372.76 -23.2709 446.385 82.2844 431.536 132.176C416.687 182.069 382.505 123.489 373.534 93.0819C361.315 96.4949 365.182 138.227 340.589 157.309C309.188 181.672 296.816 135.9 294.187 103.321C289.701 117.904 271.636 153.12 235.257 177.321C198.878 201.523 214.531 129.074 226.904 89.824C223.038 97.736 207.972 120.913 178.647 150.327Z" fill="#EEF4FF"/>
</g>
<defs>
<linearGradient id="paint0_linear" x1="597.257" y1="192.368" x2="558.793" y2="200.752" gradientUnits="userSpaceOnUse">
<stop stop-color="#99C1FF"/>
<stop offset="1" stop-color="#D7E6FF"/>
</linearGradient>
<linearGradient id="paint1_linear" x1="786.192" y1="296.089" x2="718.882" y2="312.18" gradientUnits="userSpaceOnUse">
<stop stop-color="#99C1FF"/>
<stop offset="1" stop-color="#D7E6FF"/>
</linearGradient>
<linearGradient id="paint2_linear" x1="589.603" y1="276.12" x2="510.311" y2="293.404" gradientUnits="userSpaceOnUse">
<stop stop-color="#99C1FF"/>
<stop offset="1" stop-color="#D7E6FF"/>
</linearGradient>
<linearGradient id="paint3_linear" x1="742.221" y1="313.703" x2="644.903" y2="336.968" gradientUnits="userSpaceOnUse">
<stop stop-color="#99C1FF"/>
<stop offset="1" stop-color="#D7E6FF"/>
</linearGradient>
<linearGradient id="paint4_linear" x1="457.985" y1="284.832" x2="343.341" y2="309.82" gradientUnits="userSpaceOnUse">
<stop stop-color="#99C1FF"/>
<stop offset="1" stop-color="#D7E6FF"/>
</linearGradient>
</defs>
</svg>
