<svg width="993" height="654" viewBox="0 0 993 654" fill="none" xmlns="http://www.w3.org/2000/svg">
<mask id="mask0" mask-type="alpha" maskUnits="userSpaceOnUse" x="657" y="146" width="169" height="130">
<path d="M741.628 146.772L825.787 275.04H657.468L741.628 146.772Z" fill="#C4C4C4"/>
</mask>
<g mask="url(#mask0)">
<path d="M741.628 146.772L825.787 275.04H657.468L741.628 146.772Z" fill="#D6E6FF"/>
<path d="M761.635 187.624C771.307 196.469 778.203 191.024 778.611 183.84L751.631 141.755L714.029 128.138C701.276 142.134 676.994 173.875 681.891 188.878C686.788 203.881 698.062 186.266 701.021 177.122C705.051 178.148 695.414 183.528 703.525 189.266C713.881 196.593 726.086 188.52 729.48 180.278C730.195 186.191 731.481 190.995 736.216 192.312C747.701 195.508 753.462 187.945 749.381 176.142C750.656 178.522 751.963 178.779 761.635 187.624Z" fill="#EEF4FF"/>
</g>
<mask id="mask1" mask-type="alpha" maskUnits="userSpaceOnUse" x="524" y="111" width="198" height="165">
<path d="M623.191 111.654L721.428 275.868H524.953L623.191 111.654Z" fill="#C4C4C4"/>
</mask>
<g mask="url(#mask1)">
<path d="M623.191 111.654L721.428 275.868H524.953L623.191 111.654Z" fill="#CADFFF"/>
<path d="M623.191 111.654L721.428 275.868H524.953L623.191 111.654Z" fill="url(#paint0_linear)"/>
<path d="M578.531 169.527C567.241 180.851 563.466 165.287 562.99 156.089L638.375 84.7778C653.261 102.695 681.605 143.332 675.889 162.54C670.172 181.747 657.013 159.195 653.559 147.489C648.855 148.803 650.344 164.869 640.876 172.215C628.787 181.595 624.024 163.973 623.012 151.431C621.285 157.045 614.33 170.603 600.325 179.92C586.32 189.237 592.346 161.345 597.109 146.235C595.621 149.281 589.821 158.204 578.531 169.527Z" fill="#EEF4FF"/>
</g>
<mask id="mask2" mask-type="alpha" maskUnits="userSpaceOnUse" x="618" y="163" width="348" height="266">
<path d="M791.818 163.756L965.312 428.179H618.323L791.818 163.756Z" fill="#C4C4C4"/>
</mask>
<g mask="url(#mask2)">
<path d="M791.818 163.756L965.312 428.179H618.323L791.818 163.756Z" fill="#D6E6FF"/>
<path d="M833.063 247.972C853.001 266.206 867.217 254.981 868.058 240.171L812.44 153.414L734.923 125.342C708.632 154.194 658.575 219.628 668.671 250.557C678.766 281.486 702.007 245.172 708.107 226.322C716.414 228.438 696.549 239.529 713.27 251.358C734.619 266.461 759.779 249.819 766.776 232.828C768.249 245.017 770.901 254.921 780.661 257.637C804.338 264.224 816.213 248.634 807.8 224.302C810.429 229.207 813.124 229.738 833.063 247.972Z" fill="#EEF4FF"/>
</g>
<mask id="mask3" mask-type="alpha" maskUnits="userSpaceOnUse" x="345" y="91" width="406" height="339">
<path d="M547.661 91.3604L750.177 429.885H345.145L547.661 91.3604Z" fill="#C4C4C4"/>
</mask>
<g mask="url(#mask3)">
<path d="M547.661 91.3604L750.177 429.885H345.145L547.661 91.3604Z" fill="#CADFFF"/>
<path d="M547.661 91.3604L750.177 429.885H345.145L547.661 91.3604Z" fill="url(#paint1_linear)"/>
<path d="M455.596 210.666C432.321 234.01 424.539 201.924 423.557 182.963L578.963 35.9551C609.651 72.8918 668.082 156.664 656.298 196.26C644.513 235.856 617.385 189.365 610.265 165.234C600.568 167.942 603.636 201.062 584.119 216.206C559.198 235.542 549.379 199.215 547.292 173.36C543.733 184.933 529.395 212.882 500.523 232.089C471.652 251.296 484.074 193.798 493.895 162.648C490.826 168.927 478.87 187.322 455.596 210.666Z" fill="#EEF4FF"/>
</g>
<mask id="mask4" mask-type="alpha" maskUnits="userSpaceOnUse" x="441" y="105" width="502" height="383">
<path d="M691.852 105.246L942.697 487.558H441.007L691.852 105.246Z" fill="#C4C4C4"/>
</mask>
<g mask="url(#mask4)">
<path d="M691.852 105.246L942.697 487.558H441.007L691.852 105.246Z" fill="#D6E6FF"/>
<path d="M751.486 227.008C780.314 253.372 800.867 237.142 802.083 215.728L721.669 90.2925L609.591 49.7051C571.579 91.4195 499.205 186.028 513.801 230.746C528.398 275.463 562 222.959 570.819 195.706C582.831 198.765 554.109 214.8 578.284 231.903C609.151 253.74 645.529 229.678 655.645 205.112C657.775 222.736 661.609 237.055 675.722 240.982C709.955 250.506 727.124 227.965 714.96 192.786C718.761 199.877 722.658 200.645 751.486 227.008Z" fill="#EEF4FF"/>
</g>
<mask id="mask5" mask-type="alpha" maskUnits="userSpaceOnUse" x="46" y="0" width="586" height="491">
<path d="M338.84 0.572754L631.646 490.025H46.0343L338.84 0.572754Z" fill="#C4C4C4"/>
</mask>
<g mask="url(#mask5)">
<path d="M338.84 0.572754L631.646 490.025H46.0343L338.84 0.572754Z" fill="#CADFFF"/>
<path d="M338.84 0.572754L631.646 490.025H46.0343L338.84 0.572754Z" fill="url(#paint2_linear)"/>
<path d="M205.729 173.069C172.078 206.821 160.826 160.43 159.406 133.016L384.098 -79.5342C428.469 -26.1296 512.95 94.9919 495.912 152.242C478.874 209.491 439.65 142.273 429.356 107.382C415.335 111.298 419.772 159.184 391.552 181.08C355.522 209.037 341.325 156.514 338.308 119.131C333.161 135.864 312.431 176.274 270.687 204.044C228.943 231.814 246.905 148.681 261.103 103.643C256.666 112.722 239.379 139.318 205.729 173.069Z" fill="#EEF4FF"/>
</g>
<defs>
<linearGradient id="paint0_linear" x1="686.071" y1="221.309" x2="641.936" y2="230.929" gradientUnits="userSpaceOnUse">
<stop stop-color="#99C1FF"/>
<stop offset="1" stop-color="#D7E6FF"/>
</linearGradient>
<linearGradient id="paint1_linear" x1="677.288" y1="317.413" x2="586.303" y2="337.245" gradientUnits="userSpaceOnUse">
<stop stop-color="#99C1FF"/>
<stop offset="1" stop-color="#D7E6FF"/>
</linearGradient>
<linearGradient id="paint2_linear" x1="526.261" y1="327.408" x2="394.711" y2="356.082" gradientUnits="userSpaceOnUse">
<stop stop-color="#99C1FF"/>
<stop offset="1" stop-color="#D7E6FF"/>
</linearGradient>
</defs>
</svg>
