<svg width="25" height="25" viewBox="0 0 25 25" fill="none" xmlns="http://www.w3.org/2000/svg">
<path d="M18.6957 8.94824C18.6957 7.35694 18.0635 5.83082 16.9383 4.7056C15.8131 3.58038 14.287 2.94824 12.6957 2.94824C11.1044 2.94824 9.57826 3.58038 8.45304 4.7056C7.32782 5.83082 6.69568 7.35694 6.69568 8.94824C6.69568 15.9482 3.69568 17.9482 3.69568 17.9482H21.6957C21.6957 17.9482 18.6957 15.9482 18.6957 8.94824Z" stroke="black" stroke-width="2" stroke-linecap="round" stroke-linejoin="round"/>
<path d="M14.4257 21.9482C14.2499 22.2513 13.9975 22.5029 13.6939 22.6778C13.3903 22.8527 13.0461 22.9447 12.6957 22.9447C12.3453 22.9447 12.0011 22.8527 11.6975 22.6778C11.3939 22.5029 11.1415 22.2513 10.9657 21.9482" stroke="black" stroke-width="2" stroke-linecap="round" stroke-linejoin="round"/>
</svg>
