<svg width="857" height="245" viewBox="0 0 857 245" fill="none" xmlns="http://www.w3.org/2000/svg">
<mask id="mask0" mask-type="alpha" maskUnits="userSpaceOnUse" x="69" y="13" width="71" height="168">
<path d="M104.781 13.9316L69.7767 180.096H139.785L104.781 13.9316Z" fill="#297B81"/>
</mask>
<g mask="url(#mask0)">
<path d="M104.781 13.9316L69.7767 180.096H139.785L104.781 13.9316Z" fill="#297B81"/>
<path d="M81.6105 190.812L107.355 4.89404L38.617 189.521L81.6105 190.812Z" fill="black" fill-opacity="0.12"/>
<path d="M128.466 186.939L102.721 1.02051L171.459 185.648L128.466 186.939Z" fill="#B5CEFF" fill-opacity="0.15"/>
</g>
<path d="M106.325 185.906L104.781 27.8755M105.81 160.084L93.453 148.206M105.81 141.234L115.593 130.905M105.296 120.576L99.6318 112.83M105.038 103.534L110.445 96.3037M105.038 91.9139L100.919 86.4913M105.296 79.003L109.93 73.8386M105.038 64.8009L103.236 61.9605" stroke="black" stroke-width="0.967033" stroke-linecap="round"/>
<mask id="mask1" mask-type="alpha" maskUnits="userSpaceOnUse" x="29" y="59" width="71" height="123">
<path d="M64.1041 59.8945L99.1081 181.129H29.1002L64.1041 59.8945Z" fill="#297B81"/>
</mask>
<g mask="url(#mask1)">
<path d="M64.1041 59.8945L99.1081 181.129H29.1002L64.1041 59.8945Z" fill="#FFBA33"/>
<path d="M64.1041 59.8945L99.1081 181.129H29.1002L64.1041 59.8945Z" fill="url(#paint0_linear)"/>
<path d="M87.2743 188.947L61.5297 53.3008L130.268 188.005L87.2743 188.947Z" fill="black" fill-opacity="0.12"/>
<path d="M40.4191 186.121L66.1637 50.4746L-2.57449 185.179L40.4191 186.121Z" fill="#B5CEFF" fill-opacity="0.15"/>
</g>
<path d="M62.5595 185.367L64.1041 70.0679M63.0743 166.528L75.4318 157.861M63.0743 152.775L53.2914 145.239M63.5892 137.703L69.2531 132.051M63.8467 125.269L58.4403 119.993M63.8467 116.791L67.9658 112.834M63.5892 107.371L58.9552 103.603M63.8467 97.0088L65.6488 94.9364" stroke="black" stroke-width="0.967033" stroke-linecap="round"/>
<mask id="mask2" mask-type="alpha" maskUnits="userSpaceOnUse" x="4" y="23" width="56" height="157">
<path d="M31.9233 23.7441L4.2769 179.451H59.5698L31.9233 23.7441Z" fill="#297B81"/>
</mask>
<g mask="url(#mask2)">
<path d="M31.9233 23.7441L4.2769 179.451H59.5698L31.9233 23.7441Z" fill="#297B81"/>
<path d="M13.6234 189.493L33.9568 15.2754L-20.3332 188.283L13.6234 189.493Z" fill="black" fill-opacity="0.12"/>
<path d="M50.6301 185.863L30.2968 11.646L84.5868 184.653L50.6301 185.863Z" fill="#B5CEFF" fill-opacity="0.15"/>
</g>
<path d="M33.1434 184.895L31.9234 36.8105M32.7367 160.698L22.9767 149.568M32.7367 143.035L40.4634 133.356M32.33 123.677L27.8567 116.418M32.1267 107.707L36.3967 100.932M32.1267 96.8187L28.8734 91.7373M32.33 84.7203L35.99 79.8809M32.1267 71.412L30.7034 68.7504" stroke="black" stroke-width="0.967033" stroke-linecap="round"/>
<mask id="mask3" mask-type="alpha" maskUnits="userSpaceOnUse" x="94" y="13" width="71" height="168">
<path d="M129.495 13.9316L164.499 180.096H94.4915L129.495 13.9316Z" fill="#297B81"/>
</mask>
<g mask="url(#mask3)">
<path d="M129.495 13.9316L164.499 180.096H94.4915L129.495 13.9316Z" fill="#297B81"/>
<path d="M152.666 190.812L126.921 4.89404L195.659 189.521L152.666 190.812Z" fill="black" fill-opacity="0.12"/>
<path d="M105.81 186.939L131.555 1.02051L62.8169 185.648L105.81 186.939Z" fill="#B5CEFF" fill-opacity="0.15"/>
</g>
<path d="M127.951 185.906L129.495 27.8755M128.466 160.084L140.823 148.206M128.466 141.234L118.683 130.905M128.981 120.576L134.644 112.83M129.238 103.534L123.832 96.3037M129.238 91.9139L133.357 86.4913M128.981 79.003L124.347 73.8386M129.238 64.8009L131.04 61.9605" stroke="black" stroke-width="0.967033" stroke-linecap="round"/>
<mask id="mask4" mask-type="alpha" maskUnits="userSpaceOnUse" x="135" y="59" width="71" height="123">
<path d="M170.172 59.8945L205.176 181.129H135.168L170.172 59.8945Z" fill="#297B81"/>
</mask>
<g mask="url(#mask4)">
<path d="M170.172 59.8945L205.176 181.129H135.168L170.172 59.8945Z" fill="#FFBA33"/>
<path d="M170.172 59.8945L205.176 181.129H135.168L170.172 59.8945Z" fill="url(#paint1_linear)"/>
<path d="M193.342 188.947L167.598 53.3008L236.336 188.005L193.342 188.947Z" fill="black" fill-opacity="0.12"/>
<path d="M146.487 186.121L172.232 50.4746L103.493 185.179L146.487 186.121Z" fill="#B5CEFF" fill-opacity="0.15"/>
</g>
<path d="M168.627 185.367L170.172 70.0679M169.142 166.528L181.5 157.861M169.142 152.775L159.359 145.239M169.657 137.703L175.321 132.051M169.915 125.269L164.508 119.993M169.915 116.791L174.034 112.834M169.657 107.371L165.023 103.603M169.915 97.0088L171.717 94.9364" stroke="black" stroke-width="0.967033" stroke-linecap="round"/>
<mask id="mask5" mask-type="alpha" maskUnits="userSpaceOnUse" x="174" y="23" width="56" height="157">
<path d="M202.353 23.7441L229.999 179.451H174.706L202.353 23.7441Z" fill="#297B81"/>
</mask>
<g mask="url(#mask5)">
<path d="M202.353 23.7441L229.999 179.451H174.706L202.353 23.7441Z" fill="#297B81"/>
<path d="M220.653 189.492L200.319 15.2754L254.609 188.283L220.653 189.492Z" fill="black" fill-opacity="0.12"/>
<path d="M183.646 185.863L203.979 11.646L149.689 184.653L183.646 185.863Z" fill="#B5CEFF" fill-opacity="0.15"/>
</g>
<path d="M201.133 184.895L202.353 36.8105M201.54 160.698L211.3 149.568M201.54 143.035L193.813 133.356M201.946 123.677L206.42 116.418M202.15 107.707L197.88 100.932M202.15 96.8186L205.403 91.7373M201.946 84.7202L198.286 79.8809M202.15 71.412L203.573 68.7503" stroke="black" stroke-width="0.967033" stroke-linecap="round"/>
<mask id="mask6" mask-type="alpha" maskUnits="userSpaceOnUse" x="278" y="0" width="78" height="184">
<path d="M317.315 0L278.758 183.028H355.871L317.315 0Z" fill="#297B81"/>
</mask>
<g mask="url(#mask6)">
<path d="M317.315 0L278.758 183.028H355.871L317.315 0Z" fill="#297B81"/>
<path d="M291.793 194.832L320.15 -9.95459L244.436 193.409L291.793 194.832Z" fill="black" fill-opacity="0.12"/>
<path d="M343.403 190.565L315.046 -14.2212L390.76 189.143L343.403 190.565Z" fill="#B5CEFF" fill-opacity="0.15"/>
</g>
<path d="M319.016 189.427L317.315 15.3589M318.449 160.985L304.837 147.901M318.449 140.221L329.225 128.844M317.882 117.467L311.643 108.935M317.598 98.6954L323.553 90.7315M317.598 85.8963L313.061 79.9234M317.882 71.6751L322.986 65.9866M317.598 56.0317L315.613 52.903" stroke="black" stroke-width="1.06517" stroke-linecap="round"/>
<mask id="mask7" mask-type="alpha" maskUnits="userSpaceOnUse" x="233" y="50" width="79" height="135">
<path d="M272.51 50.6274L311.066 184.165H233.954L272.51 50.6274Z" fill="#297B81"/>
</mask>
<g mask="url(#mask7)">
<path d="M272.51 50.6274L311.066 184.165H233.954L272.51 50.6274Z" fill="#FFBA33"/>
<path d="M272.51 50.6274L311.066 184.165H233.954L272.51 50.6274Z" fill="url(#paint2_linear)"/>
<path d="M298.032 192.777L269.674 43.3647L345.388 191.74L298.032 192.777Z" fill="black" fill-opacity="0.12"/>
<path d="M246.421 189.664L274.779 40.2515L199.064 188.627L246.421 189.664Z" fill="#B5CEFF" fill-opacity="0.15"/>
</g>
<path d="M270.809 188.834L272.51 61.8335M271.376 168.083L284.987 158.537M271.376 152.934L260.6 144.633M271.943 136.332L278.181 130.107M272.226 122.636L266.271 116.826M272.226 113.298L276.764 108.94M271.943 102.922L266.839 98.7716M272.226 91.5085L274.211 89.2258" stroke="black" stroke-width="1.06517" stroke-linecap="round"/>
<mask id="mask8" mask-type="alpha" maskUnits="userSpaceOnUse" x="206" y="10" width="62" height="173">
<path d="M237.063 10.8086L206.611 182.317H267.515L237.063 10.8086Z" fill="#297B81"/>
</mask>
<g mask="url(#mask8)">
<path d="M237.063 10.8086L206.611 182.317H267.515L237.063 10.8086Z" fill="#297B81"/>
<path d="M216.906 193.377L239.303 1.47998L179.503 192.045L216.906 193.377Z" fill="black" fill-opacity="0.12"/>
<path d="M257.668 189.379L235.272 -2.51807L295.071 188.047L257.668 189.379Z" fill="#B5CEFF" fill-opacity="0.15"/>
</g>
<path d="M238.407 188.314L237.063 25.2007M237.959 161.661L227.209 149.401M237.959 142.205L246.47 131.544M237.511 120.883L232.584 112.887M237.287 103.292L241.991 95.8296M237.287 91.2987L233.704 85.7017M237.511 77.9725L241.543 72.642M237.287 63.3137L235.719 60.3819" stroke="black" stroke-width="1.06517" stroke-linecap="round"/>
<mask id="mask9" mask-type="alpha" maskUnits="userSpaceOnUse" x="305" y="0" width="79" height="184">
<path d="M344.537 0L383.094 183.028H305.981L344.537 0Z" fill="#297B81"/>
</mask>
<g mask="url(#mask9)">
<path d="M344.537 0L383.094 183.028H305.981L344.537 0Z" fill="#297B81"/>
<path d="M370.059 194.831L341.702 -9.95459L417.416 193.409L370.059 194.831Z" fill="black" fill-opacity="0.12"/>
<path d="M318.449 190.565L346.806 -14.2212L271.092 189.143L318.449 190.565Z" fill="#B5CEFF" fill-opacity="0.15"/>
</g>
<path d="M342.836 189.427L344.538 15.3589M343.403 160.985L357.015 147.901M343.403 140.221L332.627 128.844M343.97 117.467L350.209 108.935M344.254 98.6954L338.299 90.7315M344.254 85.8963L348.791 79.9234M343.97 71.6751L338.866 65.9866M344.254 56.0317L346.239 52.903" stroke="black" stroke-width="1.06517" stroke-linecap="round"/>
<mask id="mask10" mask-type="alpha" maskUnits="userSpaceOnUse" x="350" y="50" width="78" height="135">
<path d="M389.342 50.6274L427.898 184.165H350.786L389.342 50.6274Z" fill="#297B81"/>
</mask>
<g mask="url(#mask10)">
<path d="M389.342 50.6274L427.898 184.165H350.786L389.342 50.6274Z" fill="#FFBA33"/>
<path d="M389.342 50.6274L427.898 184.165H350.786L389.342 50.6274Z" fill="url(#paint3_linear)"/>
<path d="M414.864 192.777L386.506 43.3647L462.22 191.74L414.864 192.777Z" fill="black" fill-opacity="0.12"/>
<path d="M363.253 189.664L391.611 40.2515L315.897 188.627L363.253 189.664Z" fill="#B5CEFF" fill-opacity="0.15"/>
</g>
<path d="M387.641 188.834L389.342 61.8335M388.208 168.083L401.819 158.537M388.208 152.934L377.432 144.633M388.775 136.332L395.014 130.107M389.059 122.636L383.104 116.826M389.059 113.298L393.596 108.94M388.775 102.922L383.671 98.7716M389.059 91.5085L391.044 89.2258" stroke="black" stroke-width="1.06517" stroke-linecap="round"/>
<mask id="mask11" mask-type="alpha" maskUnits="userSpaceOnUse" x="394" y="10" width="62" height="173">
<path d="M424.789 10.8086L455.241 182.317H394.337L424.789 10.8086Z" fill="#297B81"/>
</mask>
<g mask="url(#mask11)">
<path d="M424.789 10.8086L455.241 182.317H394.337L424.789 10.8086Z" fill="#297B81"/>
<path d="M444.946 193.377L422.549 1.47998L482.349 192.045L444.946 193.377Z" fill="black" fill-opacity="0.12"/>
<path d="M404.184 189.38L426.58 -2.51758L366.781 188.047L404.184 189.38Z" fill="#B5CEFF" fill-opacity="0.15"/>
</g>
<path d="M423.445 188.313L424.789 25.2007M423.893 161.661L434.643 149.401M423.893 142.205L415.382 131.544M424.341 120.883L429.268 112.887M424.565 103.292L419.861 95.8296M424.565 91.2987L428.148 85.7017M424.341 77.9725L420.309 72.642M424.565 63.3136L426.133 60.3819" stroke="black" stroke-width="1.06517" stroke-linecap="round"/>
<mask id="mask12" mask-type="alpha" maskUnits="userSpaceOnUse" x="503" y="17" width="71" height="167">
<path d="M538.681 17L503.677 183.164H573.685L538.681 17Z" fill="#297B81"/>
</mask>
<g mask="url(#mask12)">
<path d="M538.681 17L503.677 183.164H573.685L538.681 17Z" fill="#297B81"/>
<path d="M515.511 193.881L541.255 7.9624L472.517 192.59L515.511 193.881Z" fill="black" fill-opacity="0.12"/>
<path d="M562.366 190.007L536.621 4.08887L605.36 188.716L562.366 190.007Z" fill="#B5CEFF" fill-opacity="0.15"/>
</g>
<path d="M540.226 188.974L538.681 30.9438M539.711 163.152L527.353 151.274M539.711 144.302L549.494 133.973M539.196 123.645L533.532 115.898M538.938 106.602L544.345 99.372M538.938 94.9823L534.819 89.5597M539.196 82.0713L543.83 76.9069M538.938 67.8693L537.136 65.0288" stroke="black" stroke-width="0.967033" stroke-linecap="round"/>
<mask id="mask13" mask-type="alpha" maskUnits="userSpaceOnUse" x="463" y="62" width="71" height="123">
<path d="M498.004 62.9629L533.008 184.197H463L498.004 62.9629Z" fill="#297B81"/>
</mask>
<g mask="url(#mask13)">
<path d="M498.004 62.9629L533.008 184.197H463L498.004 62.9629Z" fill="#FFBA33"/>
<path d="M498.004 62.9629L533.008 184.197H463L498.004 62.9629Z" fill="url(#paint4_linear)"/>
<path d="M521.175 192.016L495.43 56.3691L564.168 191.074L521.175 192.016Z" fill="black" fill-opacity="0.12"/>
<path d="M474.319 189.19L500.064 53.543L431.326 188.248L474.319 189.19Z" fill="#B5CEFF" fill-opacity="0.15"/>
</g>
<path d="M496.46 188.436L498.004 73.1362M496.975 169.596L509.332 160.93M496.975 155.843L487.192 148.307M497.49 140.771L503.153 135.119M497.747 128.337L492.341 123.062M497.747 119.859L501.866 115.903M497.49 110.439L492.855 106.671M497.747 100.077L499.549 98.0048" stroke="black" stroke-width="0.967033" stroke-linecap="round"/>
<mask id="mask14" mask-type="alpha" maskUnits="userSpaceOnUse" x="438" y="26" width="56" height="157">
<path d="M465.824 26.8125L438.177 182.519H493.47L465.824 26.8125Z" fill="#297B81"/>
</mask>
<g mask="url(#mask14)">
<path d="M465.824 26.8125L438.177 182.519H493.47L465.824 26.8125Z" fill="#297B81"/>
<path d="M447.524 192.561L467.857 18.3438L413.567 191.351L447.524 192.561Z" fill="black" fill-opacity="0.12"/>
<path d="M484.53 188.931L464.197 14.7144L518.487 187.722L484.53 188.931Z" fill="#B5CEFF" fill-opacity="0.15"/>
</g>
<path d="M467.044 187.963L465.824 39.8789M466.637 163.767L456.877 152.636M466.637 146.103L474.364 136.424M466.23 126.745L461.757 119.486M466.027 110.776L470.297 104M466.027 99.887L462.774 94.8057M466.23 87.7886L469.89 82.9492M466.027 74.4804L464.604 71.8187" stroke="black" stroke-width="0.967033" stroke-linecap="round"/>
<mask id="mask15" mask-type="alpha" maskUnits="userSpaceOnUse" x="522" y="15" width="71" height="167">
<path d="M557.319 15L592.323 181.164H522.315L557.319 15Z" fill="#297B81"/>
</mask>
<g mask="url(#mask15)">
<path d="M557.319 15L592.323 181.164H522.315L557.319 15Z" fill="#297B81"/>
<path d="M580.49 191.881L554.745 5.9624L623.483 190.59L580.49 191.881Z" fill="black" fill-opacity="0.12"/>
<path d="M533.634 188.007L559.379 2.08887L490.641 186.716L533.634 188.007Z" fill="#B5CEFF" fill-opacity="0.15"/>
</g>
<path d="M555.775 186.974L557.319 28.9438M556.29 161.152L568.647 149.274M556.29 142.302L546.507 131.973M556.804 121.645L562.468 113.898M557.062 104.602L551.656 97.372M557.062 92.9823L561.181 87.5597M556.804 80.0713L552.17 74.9069M557.062 65.8693L558.864 63.0288" stroke="black" stroke-width="0.967033" stroke-linecap="round"/>
<mask id="mask16" mask-type="alpha" maskUnits="userSpaceOnUse" x="562" y="60" width="71" height="123">
<path d="M597.996 60.9629L633 182.197H562.992L597.996 60.9629Z" fill="#297B81"/>
</mask>
<g mask="url(#mask16)">
<path d="M597.996 60.9629L633 182.197H562.992L597.996 60.9629Z" fill="#FFBA33"/>
<path d="M597.996 60.9629L633 182.197H562.992L597.996 60.9629Z" fill="url(#paint5_linear)"/>
<path d="M621.166 190.016L595.421 54.3691L664.16 189.074L621.166 190.016Z" fill="black" fill-opacity="0.12"/>
<path d="M574.311 187.19L600.055 51.543L531.317 186.248L574.311 187.19Z" fill="#B5CEFF" fill-opacity="0.15"/>
</g>
<path d="M596.451 186.436L597.996 71.1362M596.966 167.596L609.323 158.93M596.966 153.843L587.183 146.307M597.481 138.771L603.145 133.119M597.738 126.337L592.332 121.062M597.738 117.859L601.858 113.903M597.481 108.439L592.847 104.671M597.738 98.0772L599.541 96.0048" stroke="black" stroke-width="0.967033" stroke-linecap="round"/>
<mask id="mask17" mask-type="alpha" maskUnits="userSpaceOnUse" x="602" y="24" width="56" height="157">
<path d="M630.177 24.8125L657.823 180.519H602.53L630.177 24.8125Z" fill="#297B81"/>
</mask>
<g mask="url(#mask17)">
<path d="M630.177 24.8125L657.823 180.519H602.53L630.177 24.8125Z" fill="#297B81"/>
<path d="M648.477 190.561L628.143 16.3438L682.433 189.351L648.477 190.561Z" fill="black" fill-opacity="0.12"/>
<path d="M611.47 186.931L631.803 12.7144L577.513 185.722L611.47 186.931Z" fill="#B5CEFF" fill-opacity="0.15"/>
</g>
<path d="M628.957 185.963L630.177 37.8789M629.363 161.767L639.123 150.636M629.363 144.103L621.637 134.424M629.77 124.745L634.243 117.486M629.973 108.776L625.703 102M629.973 97.887L633.227 92.8057M629.77 85.7886L626.11 80.9492M629.973 72.4804L631.397 69.8187" stroke="black" stroke-width="0.967033" stroke-linecap="round"/>
<mask id="mask18" mask-type="alpha" maskUnits="userSpaceOnUse" x="691" y="10" width="71" height="167">
<path d="M726.678 10.7275L691.674 176.892H761.681L726.678 10.7275Z" fill="#297B81"/>
</mask>
<g mask="url(#mask18)">
<path d="M726.678 10.7275L691.674 176.892H761.681L726.678 10.7275Z" fill="#297B81"/>
<path d="M703.507 187.608L729.252 1.68994L660.514 186.317L703.507 187.608Z" fill="black" fill-opacity="0.12"/>
<path d="M750.363 183.735L724.618 -2.18359L793.356 182.444L750.363 183.735Z" fill="#B5CEFF" fill-opacity="0.15"/>
</g>
<path d="M728.222 182.702L726.678 24.6714M727.707 156.88L715.35 145.002M727.707 138.03L737.49 127.701M727.192 117.372L721.529 109.626M726.935 100.33L732.341 93.0996M726.935 88.7098L722.816 83.2872M727.192 75.7989L731.826 70.6345M726.935 61.5968L725.133 58.7564" stroke="black" stroke-width="0.967033" stroke-linecap="round"/>
<mask id="mask19" mask-type="alpha" maskUnits="userSpaceOnUse" x="650" y="56" width="72" height="122">
<path d="M686.001 56.6904L721.005 177.925H650.997L686.001 56.6904Z" fill="#297B81"/>
</mask>
<g mask="url(#mask19)">
<path d="M686.001 56.6904L721.005 177.925H650.997L686.001 56.6904Z" fill="#FFBA33"/>
<path d="M686.001 56.6904L721.005 177.925H650.997L686.001 56.6904Z" fill="url(#paint6_linear)"/>
<path d="M709.171 185.743L683.426 50.0967L752.165 184.801L709.171 185.743Z" fill="black" fill-opacity="0.12"/>
<path d="M662.316 182.917L688.061 47.2705L619.322 181.975L662.316 182.917Z" fill="#B5CEFF" fill-opacity="0.15"/>
</g>
<path d="M684.456 182.163L686.001 66.8638M684.971 163.324L697.329 154.657M684.971 149.571L675.188 142.035M685.486 134.499L691.15 128.847M685.743 122.064L680.337 116.789M685.743 113.586L689.863 109.63M685.486 104.167L680.852 100.399M685.743 93.8047L687.546 91.7323" stroke="black" stroke-width="0.967033" stroke-linecap="round"/>
<mask id="mask20" mask-type="alpha" maskUnits="userSpaceOnUse" x="626" y="20" width="56" height="157">
<path d="M653.82 20.54L626.174 176.247H681.467L653.82 20.54Z" fill="#297B81"/>
</mask>
<g mask="url(#mask20)">
<path d="M653.82 20.54L626.174 176.247H681.467L653.82 20.54Z" fill="#297B81"/>
<path d="M635.52 186.288L655.854 12.0713L601.564 185.079L635.52 186.288Z" fill="black" fill-opacity="0.12"/>
<path d="M672.527 182.659L652.194 8.44189L706.484 181.449L672.527 182.659Z" fill="#B5CEFF" fill-opacity="0.15"/>
</g>
<path d="M655.04 181.691L653.82 33.6064M654.634 157.494L644.874 146.364M654.634 139.83L662.36 130.152M654.227 120.473L649.754 113.214M654.024 104.503L658.294 97.728M654.024 93.6146L650.77 88.5332M654.227 81.5161L657.887 76.6768M654.024 68.2079L652.6 65.5462" stroke="black" stroke-width="0.967033" stroke-linecap="round"/>
<mask id="mask21" mask-type="alpha" maskUnits="userSpaceOnUse" x="716" y="10" width="71" height="167">
<path d="M751.392 10.7275L786.396 176.892H716.388L751.392 10.7275Z" fill="#297B81"/>
</mask>
<g mask="url(#mask21)">
<path d="M751.392 10.7275L786.396 176.892H716.388L751.392 10.7275Z" fill="#297B81"/>
<path d="M774.563 187.608L748.818 1.68994L817.556 186.317L774.563 187.608Z" fill="black" fill-opacity="0.12"/>
<path d="M727.707 183.735L753.452 -2.18359L684.714 182.444L727.707 183.735Z" fill="#B5CEFF" fill-opacity="0.15"/>
</g>
<path d="M749.848 182.702L751.392 24.6714M750.363 156.88L762.72 145.002M750.363 138.03L740.58 127.701M750.877 117.372L756.541 109.626M751.135 100.33L745.729 93.0996M751.135 88.7098L755.254 83.2872M750.877 75.7989L746.243 70.6345M751.135 61.5968L752.937 58.7564" stroke="black" stroke-width="0.967033" stroke-linecap="round"/>
<mask id="mask22" mask-type="alpha" maskUnits="userSpaceOnUse" x="757" y="56" width="71" height="122">
<path d="M792.069 56.6904L827.073 177.925H757.065L792.069 56.6904Z" fill="#297B81"/>
</mask>
<g mask="url(#mask22)">
<path d="M792.069 56.6904L827.073 177.925H757.065L792.069 56.6904Z" fill="#FFBA33"/>
<path d="M792.069 56.6904L827.073 177.925H757.065L792.069 56.6904Z" fill="url(#paint7_linear)"/>
<path d="M815.239 185.743L789.495 50.0967L858.233 184.801L815.239 185.743Z" fill="black" fill-opacity="0.12"/>
<path d="M768.384 182.917L794.128 47.2705L725.39 181.975L768.384 182.917Z" fill="#B5CEFF" fill-opacity="0.15"/>
</g>
<path d="M790.524 182.163L792.069 66.8638M791.039 163.324L803.397 154.657M791.039 149.571L781.256 142.035M791.554 134.499L797.218 128.847M791.811 122.064L786.405 116.789M791.811 113.586L795.931 109.63M791.554 104.167L786.92 100.399M791.811 93.8047L793.614 91.7323" stroke="black" stroke-width="0.967033" stroke-linecap="round"/>
<mask id="mask23" mask-type="alpha" maskUnits="userSpaceOnUse" x="796" y="20" width="56" height="157">
<path d="M824.25 20.54L851.896 176.247H796.603L824.25 20.54Z" fill="#297B81"/>
</mask>
<g mask="url(#mask23)">
<path d="M824.25 20.54L851.896 176.247H796.603L824.25 20.54Z" fill="#297B81"/>
<path d="M842.55 186.288L822.216 12.0713L876.506 185.078L842.55 186.288Z" fill="black" fill-opacity="0.12"/>
<path d="M805.543 182.659L825.876 8.44189L771.586 181.449L805.543 182.659Z" fill="#B5CEFF" fill-opacity="0.15"/>
</g>
<path d="M823.03 181.691L824.25 33.6064M823.436 157.494L833.196 146.364M823.436 139.83L815.71 130.152M823.843 120.473L828.316 113.214M824.046 104.503L819.776 97.728M824.046 93.6146L827.3 88.5332M823.843 81.5161L820.183 76.6768M824.046 68.2079L825.47 65.5462" stroke="black" stroke-width="0.967033" stroke-linecap="round"/>
<defs>
<linearGradient id="paint0_linear" x1="113.791" y1="115.412" x2="52.4347" y2="148.825" gradientUnits="userSpaceOnUse">
<stop stop-color="#FFA4A4"/>
<stop offset="1" stop-color="#F4BD52"/>
</linearGradient>
<linearGradient id="paint1_linear" x1="219.859" y1="115.412" x2="158.503" y2="148.825" gradientUnits="userSpaceOnUse">
<stop stop-color="#FFA4A4"/>
<stop offset="1" stop-color="#F4BD52"/>
</linearGradient>
<linearGradient id="paint2_linear" x1="327.24" y1="111.779" x2="259.656" y2="148.584" gradientUnits="userSpaceOnUse">
<stop stop-color="#FFA4A4"/>
<stop offset="1" stop-color="#F4BD52"/>
</linearGradient>
<linearGradient id="paint3_linear" x1="444.072" y1="111.779" x2="376.488" y2="148.584" gradientUnits="userSpaceOnUse">
<stop stop-color="#FFA4A4"/>
<stop offset="1" stop-color="#F4BD52"/>
</linearGradient>
<linearGradient id="paint4_linear" x1="547.692" y1="118.48" x2="486.335" y2="151.894" gradientUnits="userSpaceOnUse">
<stop stop-color="#FFA4A4"/>
<stop offset="1" stop-color="#F4BD52"/>
</linearGradient>
<linearGradient id="paint5_linear" x1="647.683" y1="116.48" x2="586.326" y2="149.894" gradientUnits="userSpaceOnUse">
<stop stop-color="#FFA4A4"/>
<stop offset="1" stop-color="#F4BD52"/>
</linearGradient>
<linearGradient id="paint6_linear" x1="735.688" y1="112.208" x2="674.332" y2="145.621" gradientUnits="userSpaceOnUse">
<stop stop-color="#FFA4A4"/>
<stop offset="1" stop-color="#F4BD52"/>
</linearGradient>
<linearGradient id="paint7_linear" x1="841.756" y1="112.208" x2="780.399" y2="145.621" gradientUnits="userSpaceOnUse">
<stop stop-color="#FFA4A4"/>
<stop offset="1" stop-color="#F4BD52"/>
</linearGradient>
</defs>
</svg>
