<svg width="1440" height="770" viewBox="0 0 1440 770" fill="none" xmlns="http://www.w3.org/2000/svg">
<path d="M-29 390.201C11.412 320.555 75.751 255.831 142.48 211.442C204.85 169.952 286.765 152.031 359.931 140.665C401.503 134.208 448.368 134.384 475.195 171.942C492.794 196.581 504.239 243.523 489.215 271.837C475.745 297.223 448.689 315.212 419.383 312.011C365.233 306.095 354.672 256.858 360.201 211.442C367.704 149.808 424.36 84.0234 487.867 80.1352C514.8 78.4862 542.243 78.9586 567.945 87.9542C608.772 102.244 646.365 123.33 688.332 135.003C731.501 147.011 776.069 155.192 819.908 164.392C864.337 173.717 907.871 185.608 951.888 196.612C976.176 202.684 1002.46 208.295 1027.65 205.105C1053.85 201.789 1077.37 180.892 1093.98 161.561C1120.89 130.238 1148.76 39.2117 1107.93 9.94706C1095.42 0.976192 1052.03 -7.41899 1037.36 26.615C1008.08 82.6673 1012.42 114.143 1009.86 159.809C1008.91 182.641 1008.69 205.379 1027.11 221.418C1048.95 240.428 1077.29 248.423 1105.03 254.312C1145.96 262.999 1187.42 264.534 1229.06 266.984C1296.39 270.944 1363.7 272.022 1431.14 271.163C1463.03 270.757 1494.23 266.208 1525.91 263.074C1536.67 262.011 1547.5 261.789 1558 259.165" stroke="white" stroke-width="2.17075" stroke-linecap="round" stroke-linejoin="round"/>
<path d="M4.64661 577.055C76.6907 577.055 149.994 580.852 221.63 572.256C276.355 565.689 334.629 541.26 367.885 495.213C373.447 487.512 389.673 466.595 380.641 455.555C374.796 448.411 360.46 449.745 352.476 449.745C335.28 449.745 325.195 451.682 325.195 470.711C325.195 489.716 335.742 507.623 351.718 517.821C372.606 531.153 400.049 532.155 423.962 530.577C475.005 527.21 518.828 508.986 564.154 486.498C636.51 450.601 706.478 411.056 777.601 372.955C831.236 344.222 889.82 318.356 949.242 304.374C989.706 294.853 1029.02 292.881 1070.36 292.881C1104.62 292.881 1139.31 295.208 1171.91 306.648C1212.04 320.728 1243.98 341.357 1277.87 366.387C1318.9 396.683 1356.86 426.869 1393.19 462.88C1412.14 481.671 1432.39 502.706 1457.35 513.4" stroke="white" stroke-width="1.08538" stroke-linecap="round" stroke-linejoin="round"/>
<path d="M0 768.174C72.0441 768.174 145.347 771.971 216.983 763.375C271.708 756.808 301.744 733.047 335 687C340.562 679.299 339.5 658 370 666.5C390.888 679.833 395.402 723.274 419.315 721.696C470.358 718.329 514.182 700.105 559.508 677.618C631.863 641.72 701.832 602.176 772.954 564.074C826.589 535.341 885.173 509.475 944.596 495.493C985.059 485.972 1024.38 484 1065.72 484C1099.98 484 1134.66 486.327 1167.26 497.767C1207.39 511.847 1239.33 532.476 1273.23 557.506C1314.25 587.803 1352.22 617.988 1388.54 653.999C1407.49 672.79 1427.75 693.825 1452.7 704.519" stroke="white" stroke-width="1.08538" stroke-linecap="round" stroke-linejoin="round"/>
</svg>
