<svg width="1591" height="579" viewBox="0 0 1591 579" fill="none" xmlns="http://www.w3.org/2000/svg">
<path d="M2 390.201C42.412 320.555 106.751 255.831 173.48 211.442C235.85 169.952 317.765 152.031 390.931 140.665C432.503 134.208 479.368 134.384 506.195 171.942C523.794 196.581 535.239 243.523 520.215 271.837C506.745 297.223 479.689 315.212 450.383 312.011C396.233 306.095 385.672 256.858 391.201 211.442C398.704 149.808 455.36 84.0234 518.867 80.1352C545.8 78.4862 573.243 78.9586 598.945 87.9542C639.772 102.244 677.365 123.33 719.332 135.003C762.501 147.011 807.069 155.192 850.908 164.392C895.337 173.717 938.871 185.608 982.888 196.612C1007.18 202.684 1033.46 208.295 1058.65 205.105C1084.85 201.789 1108.37 180.892 1124.98 161.561C1151.89 130.238 1179.76 39.2117 1138.93 9.94706C1126.42 0.976192 1083.03 -7.41899 1068.36 26.615C1039.08 82.6673 1043.42 114.143 1040.86 159.809C1039.91 182.641 1039.69 205.379 1058.11 221.418C1079.95 240.428 1108.29 248.423 1136.03 254.312C1176.96 262.999 1218.42 264.534 1260.06 266.984C1327.39 270.944 1394.7 272.022 1462.14 271.163C1494.03 270.757 1525.23 266.208 1556.91 263.074C1567.67 262.011 1578.5 261.789 1589 259.165" stroke="white" stroke-width="2.17075" stroke-linecap="round" stroke-linejoin="round"/>
<path d="M35.6467 577.055C107.691 577.055 180.994 580.852 252.63 572.255C307.355 565.688 365.629 541.259 398.885 495.213C404.447 487.511 420.673 466.594 411.641 455.554C405.796 448.41 391.46 449.745 383.476 449.745C366.28 449.745 356.195 451.681 356.195 470.71C356.195 489.716 366.742 507.623 382.718 517.82C403.606 531.153 431.049 532.154 454.962 530.576C506.005 527.209 549.828 508.985 595.155 486.498C667.51 450.601 737.478 411.056 808.601 372.954C862.236 344.222 920.82 318.355 980.242 304.374C1020.71 294.853 1060.02 292.88 1101.36 292.88C1135.62 292.88 1170.31 295.208 1202.91 306.647C1243.04 320.727 1274.98 341.356 1308.87 366.387C1349.9 396.683 1387.86 426.869 1424.19 462.88C1443.14 481.67 1463.39 502.705 1488.35 513.4" stroke="white" stroke-width="1.08538" stroke-linecap="round" stroke-linejoin="round"/>
</svg>
