<svg width="24" height="24" viewBox="0 0 24 24" fill="none" xmlns="http://www.w3.org/2000/svg">
<path d="M21 12C21 16.9706 16.9706 21 12 21C7.02944 21 3 16.9706 3 12C3 7.02944 7.02944 3 12 3C16.9706 3 21 7.02944 21 12ZM5.13162 12C5.13162 15.7933 8.2067 18.8684 12 18.8684C15.7933 18.8684 18.8684 15.7933 18.8684 12C18.8684 8.2067 15.7933 5.13162 12 5.13162C8.2067 5.13162 5.13162 8.2067 5.13162 12Z" fill="black"/>
<rect x="19.5205" y="3" width="2" height="24" transform="rotate(43.5 19.5205 3)" fill="black"/>
</svg>
